<?xml version="1.0" encoding="UTF-8"?>
<svg xmlns="http://www.w3.org/2000/svg" xmlns:xlink="http://www.w3.org/1999/xlink" width="36pt" height="36pt" viewBox="0 0 36 36" version="1.1">
<g id="surface1">
<path style=" stroke:none;fill-rule:nonzero;fill:rgb(0%,0%,0%);fill-opacity:1;" d="M 33 18 C 33 9.71875 26.28125 3 18 3 C 9.71875 3 3 9.71875 3 18 C 3 25.261719 8.160156 31.304688 15 32.699219 L 15 22.5 L 12 22.5 L 12 18 L 15 18 L 15 14.25 C 15 11.355469 17.355469 9 20.25 9 L 24 9 L 24 13.5 L 21 13.5 C 20.175781 13.5 19.5 14.175781 19.5 15 L 19.5 18 L 24 18 L 24 22.5 L 19.5 22.5 L 19.5 32.925781 C 27.074219 32.175781 33 25.785156 33 18 Z M 33 18 "/>
</g>
</svg>
