<?xml version="1.0" encoding="UTF-8"?>
<svg xmlns="http://www.w3.org/2000/svg" xmlns:xlink="http://www.w3.org/1999/xlink" width="48pt" height="48pt" viewBox="0 0 48 48" version="1.1">
<g id="surface1">
<path style=" stroke:none;fill-rule:nonzero;fill:rgb(86.27451%,30.588235%,25.490196%);fill-opacity:1;" d="M 48.085938 24.042969 C 48.085938 37.320312 37.320312 48.082031 24.042969 48.082031 C 10.765625 48.082031 0 37.320312 0 24.042969 C 0 10.761719 10.765625 0 24.042969 0 C 37.320312 0 48.085938 10.761719 48.085938 24.042969 Z M 48.085938 24.042969 "/>
<path style=" stroke:none;fill-rule:nonzero;fill:rgb(86.27451%,30.588235%,25.490196%);fill-opacity:1;" d="M 8.371094 24.261719 C 8.285156 28.398438 11.132812 32.34375 15.054688 33.632812 C 18.746094 34.871094 23.285156 33.945312 25.742188 30.78125 C 27.535156 28.566406 27.941406 25.613281 27.746094 22.855469 C 24.585938 22.828125 21.425781 22.835938 18.269531 22.839844 C 18.261719 23.96875 18.269531 25.089844 18.273438 26.214844 C 20.164062 26.269531 22.058594 26.242188 23.953125 26.28125 C 23.472656 27.917969 22.386719 29.445312 20.734375 30.035156 C 17.542969 31.441406 13.472656 29.605469 12.46875 26.257812 C 11.257812 23.054688 13.242188 19.1875 16.515625 18.253906 C 18.546875 17.539062 20.640625 18.34375 22.375 19.398438 C 23.257812 18.578125 24.082031 17.695312 24.890625 16.804688 C 22.914062 15.15625 20.378906 14.140625 17.769531 14.363281 C 12.652344 14.425781 8.175781 19.148438 8.371094 24.261719 Z M 33.902344 20 C 33.890625 20.941406 33.882812 21.890625 33.875 22.832031 C 32.929688 22.839844 31.988281 22.84375 31.046875 22.851562 L 31.046875 25.671875 C 31.988281 25.675781 32.933594 25.679688 33.875 25.691406 C 33.886719 26.632812 33.886719 27.574219 33.894531 28.519531 C 34.832031 28.519531 35.773438 28.515625 36.714844 28.519531 C 36.722656 27.574219 36.726562 26.632812 36.734375 25.683594 L 39.566406 25.671875 L 39.566406 22.851562 C 38.625 22.84375 37.679688 22.839844 36.734375 22.832031 C 36.730469 21.890625 36.722656 20.941406 36.714844 20 Z M 33.902344 20 "/>
<path style=" stroke:none;fill-rule:nonzero;fill:rgb(100%,100%,100%);fill-opacity:1;" d="M 8.371094 24.261719 C 8.175781 19.148438 12.652344 14.425781 17.769531 14.363281 C 20.378906 14.140625 22.914062 15.152344 24.890625 16.804688 C 24.078125 17.695312 23.253906 18.574219 22.375 19.398438 C 20.636719 18.34375 18.546875 17.539062 16.515625 18.253906 C 13.242188 19.1875 11.257812 23.054688 12.46875 26.257812 C 13.472656 29.605469 17.542969 31.441406 20.734375 30.035156 C 22.382812 29.441406 23.472656 27.917969 23.953125 26.28125 C 22.058594 26.242188 20.164062 26.265625 18.273438 26.214844 C 18.265625 25.089844 18.261719 23.96875 18.265625 22.839844 C 21.425781 22.835938 24.585938 22.828125 27.746094 22.855469 C 27.941406 25.613281 27.535156 28.566406 25.742188 30.78125 C 23.285156 33.945312 18.746094 34.871094 15.054688 33.632812 C 11.132812 32.34375 8.285156 28.398438 8.371094 24.261719 Z M 33.902344 20 L 36.714844 20 C 36.722656 20.941406 36.730469 21.890625 36.734375 22.832031 C 37.675781 22.839844 38.625 22.84375 39.566406 22.851562 L 39.566406 25.671875 L 36.734375 25.683594 C 36.726562 26.632812 36.722656 27.574219 36.714844 28.519531 C 35.773438 28.515625 34.832031 28.519531 33.894531 28.519531 C 33.886719 27.574219 33.886719 26.632812 33.875 25.6875 C 32.933594 25.679688 31.988281 25.675781 31.046875 25.671875 L 31.046875 22.847656 C 31.988281 22.84375 32.929688 22.839844 33.875 22.832031 C 33.882812 21.890625 33.890625 20.941406 33.902344 20 Z M 33.902344 20 "/>
</g>
</svg>
