<?xml version="1.0" encoding="UTF-8"?>
<svg xmlns="http://www.w3.org/2000/svg" xmlns:xlink="http://www.w3.org/1999/xlink" width="36pt" height="36pt" viewBox="0 0 36 36" version="1.1">
<g id="surface1">
<path style=" stroke:none;fill-rule:nonzero;fill:rgb(0%,0%,0%);fill-opacity:1;" d="M 18 0 C 8.058594 0 0 8.058594 0 18 C 0 27.941406 8.058594 36 18 36 C 27.941406 36 36 27.941406 36 18 C 36 8.058594 27.941406 0 18 0 Z M 27.097656 14.46875 C 27.375 20.527344 22.855469 27.285156 14.851562 27.285156 C 12.421875 27.285156 10.15625 26.570312 8.25 25.347656 C 10.535156 25.617188 12.816406 24.980469 14.628906 23.5625 C 12.742188 23.527344 11.152344 22.28125 10.601562 20.570312 C 11.277344 20.699219 11.945312 20.664062 12.550781 20.496094 C 10.476562 20.082031 9.046875 18.214844 9.09375 16.21875 C 9.675781 16.539062 10.339844 16.734375 11.042969 16.757812 C 9.125 15.472656 8.582031 12.941406 9.710938 11.003906 C 11.835938 13.609375 15.011719 15.324219 18.589844 15.503906 C 17.960938 12.8125 20.007812 10.214844 22.789062 10.214844 C 24.027344 10.214844 25.148438 10.738281 25.933594 11.574219 C 26.914062 11.382812 27.839844 11.023438 28.667969 10.53125 C 28.347656 11.535156 27.664062 12.378906 26.773438 12.914062 C 27.648438 12.808594 28.476562 12.578125 29.25 12.234375 C 28.671875 13.101562 27.945312 13.859375 27.097656 14.46875 Z M 27.097656 14.46875 "/>
</g>
</svg>
